# xmcd
#
# Track frame offsets: 
#        150
#        34596
#        66344
#        95825
#        123039
#        152519
#        183274
#        218424
#        249039
#        278379
#        303324
#
# Disc length: 4444 seconds
#
# Revision: 2
# Processed by: cddbd v1.5.2PL0 Copyright (c) Steve Scherf et al.
# Submitted via: ExactAudioCopy v1.0b3
#
DISCID=80115a0b
DTITLE=Various Artist - Ibiza Vanguard Music '04 CD1 mixed by Dimas
DYEAR=2004
DGENRE=House
TTITLE0=Moth feat. Engeline - Foxi
TTITLE1=Dimas presents D-Formation - Signs and Portents Remixed
TTITLE2=Nick den Q - Gep Up
TTITLE3=Sergio Fernandez and Mario Plaza - Akuaba
TTITLE4=Astrid - Rainwater
TTITLE5=Dimas and Ferrero - Tymnosis
TTITLE6=D-Formation - The Third Dimension
TTITLE7=J. Iborra present. Swimming Pool Sound - Sumergible
TTITLE8=Piliavin and Zimbrado vs D-formation - Tie Me Down
TTITLE9=Sars - Overbooking
TTITLE10=Washington and Smokin Jo - State Of Mind
EXTD=
EXTT0=
EXTT1=
EXTT2=
EXTT3=
EXTT4=
EXTT5=
EXTT6=
EXTT7=
EXTT8=
EXTT9=
EXTT10=
PLAYORDER=
